<svg xmlns="http://www.w3.org/2000/svg" viewBox="0 0 382.15 625.81"><defs><style>.cls-1,.cls-3,.cls-4,.cls-5,.cls-6,.cls-7,.cls-8,.cls-9{fill:none;}.cls-1,.cls-5{stroke:#fff;}.cls-1,.cls-11,.cls-3,.cls-5,.cls-6,.cls-7,.cls-9{stroke-miterlimit:10;}.cls-2{fill:#fff;}.cls-10,.cls-11,.cls-12,.cls-3,.cls-4,.cls-6,.cls-7,.cls-8,.cls-9{stroke:#000;}.cls-10,.cls-11,.cls-12,.cls-4,.cls-5,.cls-6,.cls-7,.cls-8{stroke-linecap:round;}.cls-10,.cls-12,.cls-4,.cls-8{stroke-linejoin:round;}.cls-12,.cls-7,.cls-8,.cls-9{stroke-width:2px;}.cls-11{stroke-width:0.5px;}</style></defs><g id="tabouret"><path d="M546.43,585.22a21,21,0,0,1,20.91-20.42h72.9a20.94,20.94,0,0,1,20.91,20.42Z" transform="translate(-279.51 -33.7)"/><path d="M640.24,565.3a20.46,20.46,0,0,1,20.4,19.42H547a20.45,20.45,0,0,1,20.39-19.42h72.9m0-1h-72.9a21.42,21.42,0,0,0-21.42,21.42H661.66a21.42,21.42,0,0,0-21.42-21.42Z" transform="translate(-279.51 -33.7)"/><path d="M570.43,653.73c2.91-15.54,17.16-27.07,33.78-27.07S635.08,638.2,638,653.73h6.66l4.48,0c-3-21.69-22.32-38-44.92-38S562.28,632,559.29,653.73Z" transform="translate(-279.51 -33.7)"/><path d="M638.08,585.72H638a34.33,34.33,0,0,1-67.55,0H559.3a45.32,45.32,0,0,0,89.81,0Z" transform="translate(-279.51 -33.7)"/><circle cx="324.7" cy="586.43" r="9.36"/><path d="M569.38,654.73v2.77h-9.09v-2.77h9.09m1-1H559.29v4.77h11.09v-4.77Z" transform="translate(-279.51 -33.7)"/><path d="M648.13,654.7v2.77H639V654.7h9.09m1-1H638v4.77h11.09V653.7Z" transform="translate(-279.51 -33.7)"/><circle class="cls-1" cx="324.7" cy="586.43" r="5.58"/><circle class="cls-2" cx="324.7" cy="586.43" r="2.79"/></g><g id="hair"><path class="cls-3" d="M477.88,272.57a123,123,0,0,0,7.61-39.34c1-58.21-59.87-55.26-77-50.29-8.51,2.47-29.07,6.85-48.84,26.17" transform="translate(-279.51 -33.7)"/><path class="cls-4" d="M359.68,209.11" transform="translate(-279.51 -33.7)"/><path d="M396.89,331.28C364,388,332.3,383.36,332.3,383.36c-20.43-70,3.06-105.7,3.06-105.7-15.83,15.32-19.91,49-19.91,49,3.88-48,15.81-79.55,30-100.51,16.36,36.32,47,56.91,62.76,129.13-14.68,10.19-28.19,13.05-43.91,15.59" transform="translate(-279.51 -33.7)"/><path d="M419.19,310.48h0c35.14-38.19,24-95.63,23.86-96.21l1-.2c.11.56,10.57,54.34-20.37,92.75,10.19-8.69,35.17-32.19,43.14-59.8l1,.27C457.62,282.45,419.57,310.19,419.19,310.48Z" transform="translate(-279.51 -33.7)"/><path class="cls-4" d="M477.32,290.43s10,25.53,12.59,60.08" transform="translate(-279.51 -33.7)"/><path class="cls-2" d="M330.58,389.19c-5.94-29.11-1.84-51.51,14.71-74.36h0c-14.26,23-18.11,43.78-13.72,74.22Z" transform="translate(-279.51 -33.7)"/><path class="cls-2" d="M330.09,389.19c28.62-8,46.69-21.81,59.5-46.95h0c-14,23.16-30.73,36.05-59.83,46Z" transform="translate(-279.51 -33.7)"/><path d="M359.68,209.11c8.19,9.07,20.87,43.46,57.93,49.95,0,0,2.52-.95.86-6.49,0,0-14.9.9-30.75-15.85,0,0-13.05-14.12,1.64-39.7,0,0,.14-2,10.22-11.51C399.58,185.51,370.72,194.93,359.68,209.11Z" transform="translate(-279.51 -33.7)"/><path d="M437.18,250.09s-2.92,14.55.82,15.06,21.26,2.86,28.26,4.5,11.62,2.92,11.62,2.92,25.21-55.41-12.54-82.63c0,0-11.25-11.43-46.5-8.68,7.5,2,21-4.45,25.91,39.55,0,0,2.89,19.57-2.44,24.17Z" transform="translate(-279.51 -33.7)"/><path d="M442.31,264.21s-4.38,24.67-20.38,44.16c0,0,24.5-19.56,36.58-41.52S442.31,264.21,442.31,264.21Z" transform="translate(-279.51 -33.7)"/></g><g id="machettes_noires" data-name="machettes noires"><path d="M318.7,125.27s12.49,3.62,16,0c0,0,7.54,48.56,14.92,64,0,0-15.67,10.44-16.61,7.76S319.52,155.11,318.7,125.27Z" transform="translate(-279.51 -33.7)"/><path d="M479.24,294.55s13.83-5.93,14.2-8.45c0,0,9.65,18.41,17.56,58,0,0-12.06,5.82-21.6-.94C489.4,343.15,486.34,315.19,479.24,294.55Z" transform="translate(-279.51 -33.7)"/></g><g id="manchettes"><path class="cls-5" d="M494.92,288.38a40.5,40.5,0,0,1-8.58,32.85s17.64,4.2,22.78,13.93" transform="translate(-279.51 -33.7)"/><path class="cls-5" d="M484.41,292.42s10.58,2.87,18.68,18.39" transform="translate(-279.51 -33.7)"/><path class="cls-5" d="M505.47,319.39s1.45,8.69-6.37,26.72" transform="translate(-279.51 -33.7)"/><path class="cls-5" d="M323.36,126.67s-2.82,3.42-3.84,10.56" transform="translate(-279.51 -33.7)"/><path class="cls-5" d="M320.39,144.66c.1.75,8.53,23.32,23.75,29.9" transform="translate(-279.51 -33.7)"/><path class="cls-5" d="M328.72,183.88c2.3-24.59,8.58-37.65,8.58-37.65" transform="translate(-279.51 -33.7)"/><path class="cls-5" d="M339.23,195.48s-8.21-4-9.36-7.83" transform="translate(-279.51 -33.7)"/><path class="cls-5" d="M329.87,126.67s3.45,2.49,6.13,9.66" transform="translate(-279.51 -33.7)"/><path class="cls-5" d="M345.29,178s1.72,10.32.12,14.33" transform="translate(-279.51 -33.7)"/><path class="cls-6" d="M477.32,290.43S487.66,287,491.51,282" transform="translate(-279.51 -33.7)"/><path class="cls-6" d="M479.24,294.55s10.34-3.46,14.2-8.45" transform="translate(-279.51 -33.7)"/><path class="cls-6" d="M489.4,343.15s8.21,6.06,21.6.94" transform="translate(-279.51 -33.7)"/><path class="cls-6" d="M489.91,349s8.21,6.07,21.6.95" transform="translate(-279.51 -33.7)"/><path class="cls-6" d="M318.7,121.07s6.24,3.14,16,0" transform="translate(-279.51 -33.7)"/><path class="cls-6" d="M318.7,125.27s6.24,3.14,16,0" transform="translate(-279.51 -33.7)"/><path class="cls-6" d="M333,197s8.26-.5,16.61-7.76" transform="translate(-279.51 -33.7)"/><path class="cls-6" d="M334.43,201s8.57-.63,16.91-7.89" transform="translate(-279.51 -33.7)"/></g><g id="perso"><path d="M436.62,265.32c-1.94-1.66-1.88-8.91-.58-15.28l2.07-1.23c-2.35,9.7-1.39,14.17.21,16.34Z" transform="translate(-279.51 -33.7)"/><path class="cls-6" d="M438,265.15" transform="translate(-279.51 -33.7)"/><path class="cls-7" d="M485.49,360.38s20.08,22.1,26,11-11.91-89.62-26-95.74" transform="translate(-279.51 -33.7)"/><path class="cls-6" d="M485.49,360.38" transform="translate(-279.51 -33.7)"/><path class="cls-7" d="M324.38,100.72c-1.11-7.35-2.81-10.68-16.85-13.53C291.88,84,281.38,57.34,280.72,60.64c-1.78,8.93,8,27.9,13.28,32.17l24.51,19.91s-4.08,73.54,44.43,142.47,53.76,133.28,46.72,154.47-161.4,162.34-69,190.83S447.19,445.66,457.15,434.17s105.75,42.48,112.08,43.66,19.92.77,29-5.53,30.21-42.47,10-65.7-87-23.87-120.94-20" transform="translate(-279.51 -33.7)"/><path class="cls-7" d="M324.73,593c-5.57,10-16.94,15.51-16.94,15.51l43.4,11.75s-2.55-10.51-1.79-17.27" transform="translate(-279.51 -33.7)"/><polyline class="cls-8" points="60.78 584.13 50.24 624.81 14.49 624.81 41.21 579.07"/><path class="cls-7" d="M598.26,472.3c1,7.57,6.93,18.93,14.38,26.39-9.62-.86-56.48,8.4-56.48,8.4s9.82-20.31,11.41-29.32" transform="translate(-279.51 -33.7)"/><path class="cls-8" d="M569.74,504.53V564.3l68.94-.76s0-6.9-4.59-10.73S590,538.11,590,538.11s2.78-19.44,5-37.81" transform="translate(-279.51 -33.7)"/><path class="cls-3" d="M332.3,94.6" transform="translate(-279.51 -33.7)"/><path class="cls-8" d="M417.33,260c-11.05-3.26-20.33-6.7-24.78-9.93-14-10.22-55.15-56.69-57.44-126.9a33.77,33.77,0,0,1,2.42-11.45,15.37,15.37,0,0,0,.34-8.34" transform="translate(-279.51 -33.7)"/><path d="M417.7,261.07A2.5,2.5,0,0,1,417,261l.57-1.92c.09,0,.11,0,.18,0,.72-.67,1.51-2.68.68-6.45l2,.38c.4,1.9.31,6.06-1.29,7.53A2.1,2.1,0,0,1,417.7,261.07Z" transform="translate(-279.51 -33.7)"/><path class="cls-3" d="M428.81,182.94s-27.07-7.41-39.83,14.8-6.89,50.3,27.83,54.39c29,3.57,28.9-15.69,28.34-22.22S442.85,187.79,428.81,182.94Z" transform="translate(-279.51 -33.7)"/><path d="M422.89,206.67a7.43,7.43,0,0,1-1.25,0,7,7,0,0,1-4.82-3.15h0a7.14,7.14,0,0,0,4.39,2.69c2.3.3,4.84-.76,7.48-3.21l1.39-.17C427.57,205.22,425.16,206.52,422.89,206.67Z" transform="translate(-279.51 -33.7)"/><path d="M389.48,211.52a2.26,2.26,0,0,1-.85-.15,1.42,1.42,0,0,1-.91-1l1-.18a.51.51,0,0,0,.34.3c.54.19,3,1,8.15-2.87h0C393.71,210.2,391.12,211.52,389.48,211.52Z" transform="translate(-279.51 -33.7)"/><polygon points="122.9 178.43 120.07 175.66 124.28 174.91 121.95 176.15 122.9 178.43"/><path d="M409.43,230.08h0c2.71-1.82,2.53-3.64,2.48-4.17-.08-.8-1.19-1.73-1.74-2a9.53,9.53,0,0,0-7.76.54h0c1.91-1.32,6.08-2.23,8.65-1,1.43.69,1.79,1.58,1.83,2.21C413,227,411.82,228.48,409.43,230.08Z" transform="translate(-279.51 -33.7)"/><path class="cls-7" d="M472.34,291.78c1.6,5,15.15,62.94,15,94.82" transform="translate(-279.51 -33.7)"/><path class="cls-9" d="M458,268c12.23,2.23,24.39,5.34,27.48,7.61" transform="translate(-279.51 -33.7)"/><path class="cls-6" d="M439.33,276.56c-4.94-3.75-8.64-7.27-9.89-9.23-1.45-2.24,4.42-2.48,12.87-1.61" transform="translate(-279.51 -33.7)"/><path class="cls-6" d="M477.32,290.43c-7.51,2.88-19.62-2.15-29.43-8.07" transform="translate(-279.51 -33.7)"/><path class="cls-6" d="M440.75,271.9c-3.82-1-6.8-1.37-7.3-.22" transform="translate(-279.51 -33.7)"/><path class="cls-6" d="M440.75,271.9" transform="translate(-279.51 -33.7)"/><path class="cls-6" d="M460.81,279.19s-3.48-1.5-8-3.21" transform="translate(-279.51 -33.7)"/><path class="cls-6" d="M601.34,468.85" transform="translate(-279.51 -33.7)"/><path class="cls-10" d="M599,538.25s-4,1.81-5,8.59c0,0,5.36-.23,13.28,2.48,0,0,1.78-5,5.36-7Z" transform="translate(-279.51 -33.7)"/><path class="cls-4" d="M301.91,645s17.28-3.39,30.9,1.71" transform="translate(-279.51 -33.7)"/><path class="cls-4" d="M307.79,635.44" transform="translate(-279.51 -33.7)"/><path d="M314.09,634.71l-4.77,9.15a71.58,71.58,0,0,1,16,.84s2.24-7,3.06-9.06C324.13,633.7,317.36,633.57,314.09,634.71Z" transform="translate(-279.51 -33.7)"/></g><g id="col"><path class="cls-6" d="M417.33,260s3.95,7.77,11.89,7.26" transform="translate(-279.51 -33.7)"/><path class="cls-6" d="M408.25,257.15s.73,13,12.72,17.22" transform="translate(-279.51 -33.7)"/><path class="cls-6" d="M438.54,293.39c5.73,1.5,12.55,2,19.47-1.26l-6.38-7.52" transform="translate(-279.51 -33.7)"/><path class="cls-6" d="M421,274.39l-2.87,7.38s3.33,4.06,14.78,10" transform="translate(-279.51 -33.7)"/><line class="cls-6" x1="144.61" y1="232.71" x2="141.5" y2="240.69"/><path class="cls-6" d="M386.63,304.51" transform="translate(-279.51 -33.7)"/><path class="cls-6" d="M429.91,301.4c8.94,1.79,20,3.61,28.1-9.27" transform="translate(-279.51 -33.7)"/><path class="cls-6" d="M426.82,288.38l-1.2,11.54s.71.35,1.94.8" transform="translate(-279.51 -33.7)"/><path class="cls-6" d="M427.25,301.18a19.68,19.68,0,0,1-1.63-1.26" transform="translate(-279.51 -33.7)"/><path class="cls-6" d="M427.25,301.18" transform="translate(-279.51 -33.7)"/><path class="cls-6" d="M454.11,297.39l5.48,8.35s-17.87,3.28-30.54-3.38" transform="translate(-279.51 -33.7)"/><path class="cls-6" d="M437.1,305.43l.08,11.2s13.84,3.88,22.41-10.89" transform="translate(-279.51 -33.7)"/><path class="cls-6" d="M456.83,310.48s4.59,6.5,6.15,12.37c-10.13-2.38-20.74.07-25.8-6.22" transform="translate(-279.51 -33.7)"/><path class="cls-6" d="M456.83,321.89s8.57,41,6.49,68.05" transform="translate(-279.51 -33.7)"/><circle class="cls-11" cx="176.89" cy="315.53" r="1.28"/><circle class="cls-11" cx="178.6" cy="328.12" r="1.28"/><circle class="cls-11" cx="179.45" cy="339.51" r="1.28"/><circle class="cls-11" cx="174.76" cy="304.21" r="1.28"/><circle class="cls-11" cx="179.88" cy="349.75" r="1.28"/><circle class="cls-11" cx="172.32" cy="292.9" r="1.28"/></g><g id="pants"><path class="cls-6" d="M412,395.1s48.47,3.29,75.13-16.1" transform="translate(-279.51 -33.7)"/><path class="cls-6" d="M412,403.25s48.47,3.29,75.13-16.09" transform="translate(-279.51 -33.7)"/><path d="M608.3,406.6c-20.17-23.23-87-23.87-120.94-20-26.69,21.1-76.26,17.16-76.26,17.16.95,26.92-165.08,160.76-71.48,195.69,90.63,33.81,107.57-153.79,117.53-165.28s105.75,42.48,112.08,43.66,19.92.77,29-5.53S628.47,429.83,608.3,406.6Zm-279.83,167c-2-11.23,0-27.57,0-27.57,2.81-35.74,74.3-110,74.3-110C336,550.6,328.47,573.57,328.47,573.57Zm12.29,12.15S336,550.47,414.61,439.17C414.61,439.17,385.7,557.13,340.76,585.72ZM383.53,574s-12.4,10.84-22.85,15.43c0,0,14.83-19.1,72.47-138.59C433.15,450.81,411.58,551.64,383.53,574Zm194-103.63c-26.55-45.28-97.72-55.49-97.72-55.49C605.11,415.87,577.57,470.34,577.57,470.34Zm19.07-21.45s-1-56.51-103.83-45.43C492.81,403.46,617.74,367.19,596.64,448.89Z" transform="translate(-279.51 -33.7)"/></g><g id="skull"><path class="cls-8" d="M357.65,93.15c.51,0,1-2,1.36-4.94s-2.89-3.57-2.89-3.57a2.37,2.37,0,0,0,1-2.73c-.51-1.87-4.26-3.4-4.26-3.4-3.91-3.23.17-5.79.17-5.79,3.41-1.19,6-7.26,6-7.26-6.13-7.77-3.4-14.69-3.4-14.69-9.53-20.94-42.9-17-51.41-12.43s-16,16.85-16,16.85a33.9,33.9,0,0,0-2.09,11.75" transform="translate(-279.51 -33.7)"/><path class="cls-7" d="M355.1,90.26c1.7,2,3.74,9.44-3.58,9.44" transform="translate(-279.51 -33.7)"/><path class="cls-7" d="M349.66,93.15c2.3,2.85,3.91,9-4.27,9.36" transform="translate(-279.51 -33.7)"/><path class="cls-7" d="M344.2,94.17c1.19,3.15,2.62,12.87-5.27,7.78" transform="translate(-279.51 -33.7)"/><path class="cls-7" d="M338.93,94.17s1.7,9.48-2.49,9.23c-4.78-.29-5.44-5.49-4.29-10.25" transform="translate(-279.51 -33.7)"/><path class="cls-7" d="M303,76.3s-.68,8.34,3.92,9.87,12.59-1.7,14.81,0a27,27,0,0,1,4.09,4.09s-3.59,11.56,4.93,9.44" transform="translate(-279.51 -33.7)"/><path class="cls-10" d="M318.66,63.19s4.46-5.45,7.17-5.62,8.59,3.87,9.31,7.89c-3,2-4.13,2-6.13,5.13s-8.43,0-8.43,0S318,66.6,318.66,63.19Z" transform="translate(-279.51 -33.7)"/><path class="cls-10" d="M347.81,57.57a12,12,0,0,0-3.67,6.35c1.4.86,2,3,3.32,3a34.35,34.35,0,0,0,4.59-.68V62.51S349.88,58,347.81,57.57Z" transform="translate(-279.51 -33.7)"/><polygon class="cls-12" points="62.08 35.11 64.16 39.08 66.99 43.12 64.73 45.31 59.42 44.43 62.08 35.11"/></g></svg>