<?xml version="1.0" encoding="utf-8"?>
<!-- Generator: Adobe Illustrator 25.0.1, SVG Export Plug-In . SVG Version: 6.00 Build 0)  -->
<svg version="1.1" xmlns="http://www.w3.org/2000/svg" xmlns:xlink="http://www.w3.org/1999/xlink" x="0px" y="0px"
	 viewBox="0 0 841.89 841.89" style="enable-background:new 0 0 841.89 841.89;" xml:space="preserve">
<style type="text/css">
	.st0{fill:none;stroke:#000000;stroke-miterlimit:10;}
	.st1{fill:#FFFFFF;}
	.st2{fill:none;stroke:#FFFFFF;stroke-linecap:round;stroke-miterlimit:10;}
	.st3{fill:#FFFFFF;stroke:#000000;stroke-width:2;stroke-miterlimit:10;}
	.st4{fill:none;stroke:#FFFFFF;stroke-miterlimit:10;}
	.st5{fill:#FFFFFF;stroke:#000000;stroke-miterlimit:10;}
	.st6{fill:#1D1D1B;}
	.st7{fill:#191918;}
	.st8{fill:none;stroke:#000000;stroke-width:2;stroke-linecap:round;stroke-miterlimit:10;}
	.st9{fill:#020202;stroke:#000000;stroke-miterlimit:10;}
</style>
<g id="Calque_10">
	<path class="st0" d="M470.13,314.7c5.67,3.04,18.77,20.3,24.09,58.32l8.22-2.68"/>
	<polygon points="493.83,371.88 492.98,380.02 497.32,377.92 	"/>
</g>
<g id="Calque_9">
	<path d="M379.28,586.47c2.43,0.85,11.74,3.45,27.18-7c2.08-4.53,2.35-11.89,0-13.79c-7.57-6.11-33.33,4.87-35.29,9.57
		C368.6,581.41,374.57,584.82,379.28,586.47z"/>
	<path d="M449.23,591.82c3.51,1.53,19.47,0.64,21.74-7.81c2.26-8.46,1.94-15.36,0-17.81c-6.24-7.89-27.45,6.29-29.06,12.37
		C439.79,586.53,445.73,590.29,449.23,591.82z"/>
	<path class="st1" d="M378.05,582.72c-2.03-0.49-3.67-0.93-5-1.31c1.61,2.06,4.45,3.45,6.93,4.31c2.28,0.8,11.05,3.24,25.56-6.59
		c0.59-1.28,1.02-2.8,1.28-4.34C402.88,577.63,390.35,585.71,378.05,582.72z"/>
	<g>
		<path class="st1" d="M463.73,580c-0.24,0.03-0.5,0-0.73-0.09c-4.22-1.62-9.73-2.08-15.12-1.23c-0.69,0.1-1.37-0.24-1.47-0.78
			c-0.1-0.54,0.38-1.07,1.09-1.18c5.92-0.92,12.04-0.42,16.75,1.39c0.63,0.24,0.85,0.84,0.51,1.34
			C464.54,579.76,464.15,579.96,463.73,580z"/>
	</g>
	<g>
		<path class="st1" d="M463.79,576.27c-0.21,0.02-0.42,0-0.61-0.08c-3.55-1.37-8.18-1.75-12.71-1.04c-0.58,0.08-1.15-0.2-1.24-0.66
			c-0.09-0.46,0.32-0.9,0.92-1c4.98-0.77,10.12-0.35,14.08,1.17c0.53,0.2,0.72,0.71,0.43,1.13
			C464.47,576.06,464.14,576.23,463.79,576.27z"/>
	</g>
	<g>
		<path class="st1" d="M388.87,573.28c0.15,0.08,0.31,0.11,0.46,0.11c0.36,0,0.71-0.2,0.89-0.54c0.26-0.49,0.07-1.09-0.42-1.35
			c-2.26-1.18-4.83-2.14-7.54-2.86c-1.04,0.44-2.04,0.89-2.99,1.35C382.75,570.7,386.07,571.81,388.87,573.28z"/>
		<path class="st1" d="M384.59,575.4c0.17,0.11,0.36,0.17,0.55,0.17c0.33,0,0.64-0.16,0.84-0.45c0.3-0.46,0.18-1.08-0.28-1.38
			c-2.29-1.51-5.09-2.5-8.06-2.92c-1.12,0.59-2.14,1.19-3.02,1.77C378.28,572.6,381.85,573.6,384.59,575.4z"/>
	</g>
	<path class="st1" d="M443.62,585.75c1.52,2.69,4.25,4.28,6.2,5.13c3.31,1.45,18.39,0.61,20.52-7.38c0.02-0.06,0.03-0.13,0.05-0.19
		C460.66,590.68,450.54,589.98,443.62,585.75z"/>
</g>
<g id="Calque_8">
	<path d="M469.23,434.88c-0.78-1.17-2.11-1.86-3.52-1.82l-79.34,2.33c-1.54,0.05-2.81,1.18-3,2.69
		c-2.01,15.81-11.98,98.98-3.87,129.27c5.91,4.37,24.93,4.42,32.72,0c0,0,8.53-50.29,8.73-79.89c-2.01-3.24-4.16-6.29-6.51-9.31
		c2.7,2.84,5.28,5.81,7.74,9.22c0.91,1.04,1.89,2.5,2.93,4.4c8.4,13.69,15.1,34.89,19.52,78.9c7.57,3.97,24.27,2.86,31.31-1.53
		C481.38,556.23,484.92,458.33,469.23,434.88z"/>
	<path class="st2" d="M446.51,443.62c0.68,10.55,7.51,26.38,22.64,24.85"/>
	<g>
		<path class="st3" d="M465.11,433.5c-24.14,3.26-50.07,3.69-77.78,1.35l-0.12-6.99c27.11,2,53.15,1.79,77.78-1.35L465.11,433.5z"/>
		<rect x="393.8" y="428.91" width="2.18" height="8.51"/>
		<rect x="414.81" y="429.49" width="1.66" height="8.51"/>
		<rect x="423.87" y="429.06" width="1.62" height="8.51"/>
		<rect x="446.51" y="429.06" width="2.18" height="8.51"/>
		<path d="M412.72,433.76v-1.39c1.85,0.17,3.59,0.21,5.11,0v1.39C416.5,434.08,414.68,433.97,412.72,433.76z"/>
	</g>
</g>
<g id="body">
	<path class="st4" d="M379.49,388.04"/>
	<path class="st4" d="M371.95,403.7"/>
	<g id="bras_D">
	</g>
	<g>
		<path d="M413.17,430.42c-15.47,0-26.94-0.87-29.21-2.21c-0.08-0.06-11.88-8.78-12.87-15.81c0,0,0,0,0,0c0,0,0.03-5.09,1.87-8.4
			l0.17-0.31l-0.24-0.27c-11.72-12.93-4.67-27.32,0.58-34.75c4.84-6.84,10.43-15.13,15.24-24.72l2.18-2.82l0.03-0.09
			c1.94-6.45,3.71-10.56,5.26-12.2c2.87-2.58,7-5,12.97-7.59c1.49-0.66,2.99-1.28,4.48-1.85l0.22-0.08
			c1.31-0.49,2.64-0.95,3.95-1.35v5.54l0.02,0.06c0.02,0.06,1.64,5.9,7.53,5.9c0,0,0,0,0,0c4.71,0,10.76-3.72,17.99-11.06l0.14-0.15
			v-2.32c7.18,1.3,13.96,4.33,20.18,9.01c0.19,0.35,0.86,1.62,1.86,3.61c6.01,12.19,25.15,53.27,18.98,69.7
			c-1.25,3.13-3.4,5.23-6.39,6.25l-0.19,0.06c-1.43,0.42-2.8,0.62-4.11,0.62l0,0c-2.53,0-4.95-0.75-7.2-2.22
			c-14.66-9.59-19.05-46.21-19.09-46.58l-0.06-0.5l-1.99,0.23l0.06,0.5c0.18,1.55,4.63,37.98,19.98,48.02
			c2.59,1.69,5.37,2.55,8.28,2.55c1.26,0,2.57-0.17,3.91-0.5c-0.5,8.67-4.05,13.54-9.21,18.14
			C464.58,428.34,437.29,430.42,413.17,430.42z M456.63,350.07l13.82,21.23l1.68-1.09l-13.82-21.23L456.63,350.07z"/>
		<path d="M443.97,316.56c6.85,1.34,13.33,4.28,19.29,8.74c0.24,0.45,0.89,1.68,1.8,3.49c5.99,12.15,25.06,53.06,18.97,69.28
			c-1.21,3.04-3.21,4.99-6.09,5.97l-0.27,0.09c-1.32,0.38-2.62,0.57-3.88,0.57c-2.43,0-4.76-0.72-6.92-2.14
			c-14.23-9.31-18.82-45.85-18.87-46.22l-0.12-0.99l-0.99,0.12l-0.99,0.12l-0.99,0.12l0.12,0.99c0.18,1.56,4.66,38.21,20.2,48.38
			c2.67,1.75,5.55,2.63,8.56,2.63c1.09,0,2.22-0.12,3.36-0.36c-0.64,8.08-4.07,12.74-9,17.13c-3.81,3.4-30.94,5.43-54.98,5.43
			c-15.29,0-26.61-0.83-28.92-2.12c-0.77-0.57-11.66-8.8-12.65-15.4c0.01-0.61,0.13-5.15,1.8-8.16l0.35-0.63l-0.48-0.53
			c-11.49-12.67-4.55-26.82,0.61-34.12c4.83-6.84,10.42-15.12,15.23-24.7l2.12-2.75l0.11-0.15l0.05-0.18
			c2.37-7.88,4.09-10.86,5.12-11.97c2.85-2.56,6.93-4.95,12.84-7.51c1.5-0.67,3.02-1.29,4.52-1.86l0.14-0.05
			c1.09-0.41,2.19-0.79,3.28-1.14v4.79v0.13l0.03,0.13c0.58,2.17,3,6.27,8.02,6.27c4.85,0,11.02-3.77,18.34-11.21l0.29-0.29v-0.41
			V316.56 M470.31,371.99l0.84-0.55l0.84-0.55l0.84-0.55l-0.55-0.84L459,349.12l-0.55-0.84l-0.84,0.55l-0.84,0.55l-0.84,0.55
			l0.55,0.84l13.28,20.39L470.31,371.99 M442.97,315.36v2.71c-8.26,8.4-13.88,10.91-17.63,10.91c-5.57,0-7.05-5.53-7.05-5.53v-6.15
			c-1.56,0.47-3.1,0.99-4.63,1.56c0,0,0,0,0,0c-0.01,0.01-0.02,0.01-0.04,0.01c-1.58,0.59-3.14,1.23-4.69,1.92
			c-6,2.6-10.16,5.03-13.13,7.71c-1.76,1.86-3.6,6.49-5.37,12.4l-2.18,2.83c-5.2,10.36-11.47,19.37-15.2,24.66
			c-5.45,7.71-12.43,22.26-0.54,35.37c-1.93,3.48-1.93,8.72-1.93,8.72c1.02,7.32,13.11,16.17,13.11,16.17
			c2.58,1.52,14.92,2.28,29.46,2.28c22.95,0,51.39-1.89,55.64-5.68c5.05-4.5,9.04-9.6,9.41-19.18c-1.51,0.43-2.99,0.66-4.44,0.66
			c-2.82,0-5.5-0.82-8.01-2.47c-15.17-9.93-19.58-46.13-19.76-47.66l0.99-0.12c0.04,0.37,4.53,37.27,19.31,46.94
			c2.34,1.53,4.84,2.3,7.47,2.3c1.43,0,2.9-0.23,4.4-0.69c0.02-0.01,0.04-0.02,0.06-0.02c0,0,0-0.01,0-0.01
			c3.31-1.12,5.45-3.42,6.7-6.54c6.16-16.4-12.09-56.09-19-70.1c-1.19-2.36-1.92-3.72-1.92-3.72
			C457.2,319.47,450.1,316.56,442.97,315.36L442.97,315.36z M470.6,370.61l-13.28-20.39l0.84-0.55l13.28,20.39L470.6,370.61
			L470.6,370.61z"/>
	</g>
</g>
<g id="bretelles">
	<path class="st5" d="M450.38,317.8c2.01-1.33,10.01,0.46,10.01,4.8c0,0-22.55,26.05-13.87,64.7
		C446.51,387.29,433.02,347.1,450.38,317.8z"/>
	<path class="st5" d="M400.14,324.32c3.29-4.55,11.43-6.5,13.09-5.06c0,0-26.06,17.77-21.15,57.08
		C392.08,376.35,380.04,351.81,400.14,324.32z"/>
	<path d="M444.09,317.41c2.46-2.08,11.48-5.62,21.76-3.24c10.27,2.38,24.21,11.37,32.28,40.69c9.7,35.24,0.23,49.7-6.28,55.19
		c-5.66,4.77-12.39,5.56-15.07,4.31c-6.22-2.92-19.28-6.36-22.74-7.24l1.47-15.84c-0.59-1.2-1.14-2.43-1.67-3.68l-1.95,21.04
		l0.83,0.21c0.16,0.04,16.33,4.1,23.21,7.33c0.96,0.45,2.31,0.72,3.92,0.72c3.67,0,8.66-1.41,13.29-5.31
		c6.87-5.79,16.91-20.94,6.92-57.25c-8.33-30.27-22.96-39.61-33.76-42.11c-11.87-2.75-22.04,1.91-24.08,4.23"/>
</g>
<g id="hands">
	<path class="st5" d="M457.96,348.76c-0.8-3.27-1.89-6.48-3.53-9.43s-4.23-5.52-7.49-6.38c-3.03-0.8-6.3-0.02-9.06,1.46
		c-1.42,0.76-2.89,1.99-2.8,3.59c0.08,1.43,0.7,2.58,1.81,3.49c0.51,0.42,0.9,0.39,1,0.98c0.07,0.4-0.28,1.16-0.34,1.58
		c-0.14,1.07-0.12,2.16,0.06,3.23c0.36,2.13,1.33,4.17,2.84,5.72c2.72,2.81,7.06,3.93,10.81,2.78
		C454.15,354.9,456.97,351.64,457.96,348.76z"/>
	<path class="st5" d="M394.25,356.52c-2.02,2.2-6.32,2.08-8.12-0.31c-2.75-3.66,2.25-18.53,3.42-18.93c1.17-0.4,2.46-0.22,3.65,0.11
		c2.64,0.74,6.4,6.11,6.89,7.56c0.31,0.93-0.23,3.23-2.65,3.03C398.1,350.29,395.74,354.9,394.25,356.52z"/>
</g>
<g id="planet">
	<circle class="st1" cx="416.08" cy="375.95" r="11.34"/>
	<path class="st1" d="M438.49,363.59c-1.71-3.04-12.53-0.19-24.17,6.36c-11.64,6.55-19.7,14.32-17.99,17.36
		c1.71,3.04,12.53,0.19,24.17-6.36C432.14,374.4,440.2,366.63,438.49,363.59z M419.13,379.07c-8.71,4.9-16.82,7.03-18.09,4.76
		c-1.28-2.27,4.75-8.09,13.46-12.99c8.71-4.9,16.82-7.03,18.09-4.76C433.87,368.35,427.84,374.16,419.13,379.07z"/>
	<g>
		<path d="M404.87,377.68c-0.02-0.1-0.02-0.21-0.04-0.31c-3.1,2.76-4.66,5.18-3.91,6.51c0.36,0.65,1.24,0.97,2.55,0.97
			c1.03,0,2.32-0.2,3.85-0.6c3.43-0.9,7.64-2.71,11.87-5.08c8.91-5.01,14.84-10.79,13.51-13.16c-0.65-1.15-2.92-1.29-6.4-0.37
			c-1.11,0.29-2.3,0.69-3.55,1.15c0.08,0.06,0.16,0.11,0.24,0.18c1.18-0.44,2.31-0.81,3.37-1.09c1.51-0.4,2.79-0.59,3.79-0.59
			c1.2,0,2.01,0.28,2.33,0.84c1.24,2.21-4.78,7.96-13.42,12.82c-4.21,2.37-8.4,4.16-11.81,5.06c-3.31,0.87-5.54,0.78-6.12-0.25
			C400.46,382.56,401.97,380.29,404.87,377.68z"/>
		<path d="M438.6,363.53c-1.36-2.42-8.34-1.2-16.89,2.57c0.08,0.05,0.16,0.1,0.24,0.15c5.48-2.42,10.27-3.77,13.29-3.77
			c1.59,0,2.69,0.38,3.14,1.17c0.78,1.39-0.66,4.02-3.97,7.21c-3.39,3.27-8.35,6.81-13.98,9.98c-11.56,6.5-22.33,9.38-24.01,6.41
			c-1.15-2.04,2.3-6.33,8.32-10.92c0-0.09-0.01-0.19-0.01-0.28c-6.19,4.72-9.74,9.18-8.53,11.32c0.48,0.85,1.65,1.25,3.34,1.25
			c4.46,0,12.53-2.8,21-7.56c5.64-3.17,10.62-6.73,14.03-10.01C438.03,367.72,439.45,365.05,438.6,363.53z"/>
	</g>
</g>
<g id="head">
	<path d="M425.35,329.98c-0.75,0-1.48-0.09-2.17-0.27c-4.52-1.19-5.8-5.81-5.86-6l-0.03-0.26v-8.75h2v8.6
		c0.2,0.64,1.32,3.67,4.42,4.48c2.99,0.78,8.57-0.36,18.26-10.12v-7.21l2-0.69v8.71l-0.29,0.29
		C436.35,326.22,430.2,329.98,425.35,329.98z"/>
	<path d="M474.61,279.15c-0.39,0-0.76-0.03-1.13-0.1c-2.18-0.4-4.97-0.24-7.01-3.73c3.58,4.8,15.91,2.26,18.68-9.07
		c0.97-3.95,0.29-8.45-1.64-12.59c-1.25-2.69-2.83-4.74-4.71-6.08c-2.17-1.55-4.78-2.11-7-1.51c-3.81,1.03-6.43,4.61-8.1,8.4
		c-1.73,3.93-1.64,4.04-2.98,8.13c0,0-0.2-4.52,1.55-8.5c1.75-3.97,4.35-8.7,9-9.96c2.79-0.76,6.04-0.08,8.69,1.82
		c2.16,1.55,3.96,3.86,5.36,6.86c2.11,4.53,2.74,9.46,1.78,13.86c-1.07,4.89-4.15,9.11-8.26,11.29
		C477.36,278.75,475.94,279.15,474.61,279.15z"/>
	<g>
		<path d="M388.96,268.76c0.32,0.78,0.36,1.66,0.28,2.5c-0.07,0.84-0.26,1.67-0.52,2.47c-0.24,0.81-0.58,1.57-0.92,2.33
			c-0.38,0.75-0.75,1.48-1.25,2.19l-0.01-0.51c0.45,0.61,1.04,1.22,1.64,1.77c0.62,0.54,1.25,1.07,2.03,1.41
			c-0.86-0.07-1.67-0.48-2.39-0.94c-0.73-0.48-1.4-0.99-2-1.7l-0.18-0.22l0.17-0.3c0.38-0.67,0.76-1.41,1.09-2.13
			c0.36-0.72,0.67-1.46,0.97-2.21c0.29-0.75,0.57-1.5,0.77-2.27C388.85,270.38,389.01,269.59,388.96,268.76z"/>
	</g>
	<g>
		<path d="M420.69,294.1c2.37-0.54,4.55-1.38,6.53-2.62c1.99-1.22,3.72-2.8,5.26-4.68c-0.86,2.29-2.64,4.22-4.74,5.53
			C425.64,293.62,423.13,294.35,420.69,294.1z"/>
	</g>
	<g>
		<g>
			<path class="st6" d="M467.57,268.26l-1.69-1.07c2.82-5.22,8.55-9.06,14.05-10.53C475.62,259.28,470.63,263.41,467.57,268.26z"/>
		</g>
		<polygon class="st7" points="472.25,267.85 468.76,264.92 470.04,263.39 		"/>
	</g>
	<path d="M427.26,256.57c-0.08,0.38-0.14,0.78-0.14,1.19c0,2.62,1.79,4.75,3.99,4.75c2.21,0,3.99-2.13,3.99-4.75
		c0-0.47-0.07-0.91-0.18-1.34C432.38,256.05,429.79,256.1,427.26,256.57z"/>
	<path d="M376.15,258.52c-0.39,0.82-0.63,1.85-0.63,2.99c0,2.62,1.23,4.75,2.75,4.75c1.49,0,2.7-2.05,2.75-4.61
		c-0.85-0.72-1.74-1.4-2.69-1.99C377.64,259.24,376.91,258.84,376.15,258.52z"/>
	<g>
		<path d="M412.97,265.18c0.72-1.1,1.59-2.09,2.51-3.04c0.95-0.92,1.98-1.76,3.07-2.52c2.18-1.52,4.66-2.61,7.25-3.26
			c2.6-0.63,5.3-0.81,7.94-0.48c1.32,0.17,2.62,0.43,3.89,0.81c1.26,0.41,2.49,0.89,3.64,1.53c-1.24-0.43-2.48-0.81-3.76-1.05
			c-1.26-0.28-2.55-0.45-3.83-0.52c-2.57-0.14-5.15,0.06-7.63,0.68c-2.49,0.6-4.87,1.62-7.08,2.94
			C416.76,261.58,414.75,263.25,412.97,265.18z"/>
	</g>
	<g>
		<path d="M368.21,259.47c0.96-1.35,2.69-2.09,4.38-2.14c1.72-0.07,3.39,0.49,4.86,1.26c2.91,1.59,5.43,3.91,7.08,6.73
			c-1.14-1.17-2.33-2.25-3.58-3.24c-1.26-0.97-2.58-1.88-3.97-2.61c-1.38-0.74-2.86-1.28-4.39-1.37
			C371.07,258.04,369.46,258.4,368.21,259.47z"/>
	</g>
	<path class="st8" d="M417.34,254.18c1.39-1.38,3.24-2.28,5.18-2.53"/>
	<path class="st8" d="M376.18,251.91c1.51,0.4,2.94,1.08,4.19,2"/>
	<path class="st9" d="M460.66,261.49c1.11-3.2,1.07-3.66,2.53-6.99c1.75-3.97,4.16-8.26,8.35-9.4c2.65-0.72,5.56,0.05,7.8,1.64
		c-0.66-8.15-4.08-17.05-7.73-23.27c-5.16-8.81-13.32-15.55-22.4-20.03c-19.79-9.77-44.42-8.69-63.3,2.79
		c-13.23,8.04-23.51,20.62-37.29,27.67c5.6,3.61,12.9,4.86,19.31,3.12c-0.29,0.1-0.58,0.2-0.86,0.3c-0.48,4.42,0.37,8.58,1.59,12.85
		c1.56-7.02,7.31-12.91,14.22-14.56c8.75,5.41,18.72,8.86,28.97,8.89c10.24,0.03,31.94-1.3,40.71-6.66
		C458.55,250.94,459.51,258.26,460.66,261.49z"/>
	<path d="M420.94,194.45c-33.21,0-60.23,27.02-60.23,60.23c0,33.21,27.02,60.23,60.23,60.23c25.01,0,46.5-15.32,55.6-37.07
		c-0.76,0.23-1.54,0.35-2.31,0.29c-0.41,0.93-0.85,1.84-1.31,2.75c-9.27,19.66-29.26,33.27-52.44,33.27
		c-32.01,0-57.96-25.95-57.96-57.96c0-2.5,0.18-4.96,0.48-7.37c2.95-29.37,27.8-52.38,57.94-52.38c29.24,0,53.51,21.67,57.61,49.79
		c0.28,0.17,0.56,0.34,0.83,0.53c0.5,0.36,0.97,0.76,1.41,1.18C477.43,217.89,451.88,194.45,420.94,194.45z"/>
</g>
</svg>
