<svg xmlns="http://www.w3.org/2000/svg" viewBox="0 0 405.6 583.19"><defs><style>.cls-1,.cls-2,.cls-5{fill:none;}.cls-1,.cls-2{stroke:#000;}.cls-1,.cls-2,.cls-3,.cls-5{stroke-miterlimit:10;}.cls-2,.cls-3,.cls-5{stroke-width:2px;}.cls-3{fill:#fff;}.cls-3,.cls-5{stroke:#1d1d1b;}.cls-4{fill:#1d1d1b;}</style></defs><g id="shoes"><path d="M407.58,644.16c1.33,6.81,3.32,20.14,1.59,25.93-4.3,1-21.4,4.82-36.38,4.82-2.31,0-4.49-.09-6.49-.27a24.27,24.27,0,0,1-4.16-7.59c6.38-2.46,28-11.29,35.28-20.56l10.16-2.33m1.55-2.4-12.87,2.94c-7.45,10.54-36.56,21.13-36.56,21.13a25.8,25.8,0,0,0,5.62,10.72,72.18,72.18,0,0,0,7.47.36c17.66,0,37.89-5.12,37.89-5.12,3.32-7.58-1.55-30-1.55-30Z" transform="translate(-236.54 -93.72)"/><path class="cls-1" d="M364.21,672.3s28.51.08,45.88-5.87" transform="translate(-236.54 -93.72)"/><path class="cls-1" d="M409.32,654.26a15.65,15.65,0,0,0-9.87,15.1" transform="translate(-236.54 -93.72)"/><path class="cls-1" d="M369.49,671.68s-.43-3.49,4.6-6.21,9-1.13,16.93-10.21a15.42,15.42,0,0,1,13.36-5,20.92,20.92,0,0,1,0,6.93" transform="translate(-236.54 -93.72)"/><path class="cls-1" d="M394.18,648.52a3.5,3.5,0,0,1,2.7,2.92" transform="translate(-236.54 -93.72)"/><line class="cls-1" x1="153.46" y1="558.98" x2="155.05" y2="560.9"/><line class="cls-1" x1="136.01" y1="568.81" x2="136.95" y2="570.62"/><line class="cls-1" x1="138.34" y1="567.61" x2="139.28" y2="569.42"/><line class="cls-1" x1="140.93" y1="566.61" x2="141.88" y2="568.43"/><line class="cls-1" x1="143.54" y1="565.29" x2="144.59" y2="567.33"/><line class="cls-1" x1="145.88" y1="563.78" x2="147.05" y2="566.04"/><line class="cls-1" x1="148.34" y1="562.33" x2="149.42" y2="564.4"/><line class="cls-1" x1="150.85" y1="560.77" x2="151.64" y2="562.28"/><path d="M639.63,437a23,23,0,0,1,.49,6l-44.55,28.51c-2.57-10.79-5.29-17.14-6.68-20l6.14-3.92c2.25-.5,15.46-3.47,44.6-10.59m.91-2.28h-.07c-33.36,8.17-46.21,11-46.21,11l-8,5.11s4.29,7,8,23.87l47.8-30.59c.36-4.66-.54-9.38-1.52-9.38Z" transform="translate(-236.54 -93.72)"/><line class="cls-1" x1="357.71" y1="375.15" x2="404.69" y2="345.98"/><path class="cls-1" d="M592,459.19s8-7.57,14.22,2.28" transform="translate(-236.54 -93.72)"/><path class="cls-1" d="M635.91,443s-2.59-2.89-11,0c-7.94,2.71-9,4.59-23.61,6.39-7.45.92-9.07,2.93-9.07,2.93a33.15,33.15,0,0,1,2,4.93" transform="translate(-236.54 -93.72)"/><line class="cls-1" x1="371.75" y1="349.96" x2="372.21" y2="351.95"/><line class="cls-1" x1="374.31" y1="349.39" x2="374.76" y2="351.38"/><line class="cls-1" x1="377.07" y1="349.07" x2="377.53" y2="351.07"/><line class="cls-1" x1="379.92" y1="348.44" x2="380.43" y2="350.68"/><line class="cls-1" x1="382.57" y1="347.56" x2="383.14" y2="350.04"/><line class="cls-1" x1="385.32" y1="346.77" x2="385.84" y2="349.04"/><line class="cls-1" x1="388.14" y1="345.89" x2="388.52" y2="347.55"/><path class="cls-1" d="M598.52,445.67a4.82,4.82,0,0,0-.35,3.8" transform="translate(-236.54 -93.72)"/><line class="cls-1" x1="368.86" y1="351.11" x2="369.45" y2="354.9"/></g><g id="chemise"><path d="M424.85,359.23l-1.35.68.2.32-6,23.64L398.17,373l5.36,18.39-52.85,5.36-.13-.26-.51.26c-11.49,137.11-4.34,199.84,46.22,248l12.87-2.94S335,523,420.94,413.49c0,0,113.23-66.89,165.32,37.28l8-5.11S575,330.89,424.85,359.23Z" transform="translate(-236.54 -93.72)"/><path class="cls-2" d="M369.57,213.66c43.83,14.21,89.2-24.17,106.22-46.64l6.81,8.17c-9.88,17.7-44.6,70.13-94.61,63.62-8.43,52.08,35.71,120.55,35.71,120.55l-6.38,25-19.15-12.25,5.36,18.38-52.85,5.36c-43.08-77.37-38.91-135.47-38-144.76C237.15,295,248,361.4,248,361.4h-7.66C221.83,232.72,344,216.77,345.83,216.26c5.8-1.12,8.6-2.81,13.08-19.1" transform="translate(-236.54 -93.72)"/><path class="cls-1" d="M360.53,261.32a11.27,11.27,0,0,1-5.76,1.19c1.66,37.75,34.23,95.35,42.73,128.61" transform="translate(-236.54 -93.72)"/></g><g id="buttons"><circle cx="121.25" cy="171.73" r="1.4"/><circle cx="125.51" cy="191.28" r="1.4"/><circle cx="131.25" cy="209.56" r="1.4"/><circle cx="137.8" cy="227.43" r="1.4"/><circle cx="145.8" cy="247.94" r="1.4"/><circle cx="154.65" cy="269.47" r="1.4"/><circle cx="160.54" cy="286.41" r="1.4"/></g><g id="head"><path class="cls-2" d="M342.32,164.81s-8.8-16,15.23-32.85c7,.68,13.85,4.25,18.85,4.08s9.34-5.78,9.34-5.78-1.4,15.31-7.7,15.83-22.66,1.53-25.66,8S349.33,160.38,342.32,164.81Z" transform="translate(-236.54 -93.72)"/></g><g id="face"><path d="M381.26,196.13c-7.58.82-12-5.74-12.27-6.1,0,0,8.49,9.07,20,1.08V193A16.67,16.67,0,0,1,381.26,196.13Z" transform="translate(-236.54 -93.72)"/><path d="M382.42,181.65l-.79-1.82a10.51,10.51,0,0,0,3.71-5.4c-5.42-1.2-9-7.41-9-7.41s5.19,6.2,10.23,5.92l.63,0h0C387.14,173.09,386.48,179.15,382.42,181.65Z" transform="translate(-236.54 -93.72)"/><path d="M357.86,170.85a14.47,14.47,0,0,1-3.57-.45l.27-1c.07,0,5.53,1.72,10.28-1.4h0A9,9,0,0,1,357.86,170.85Z" transform="translate(-236.54 -93.72)"/><path d="M376.38,164.63h0c.06,0,5.28-.53,6.11-3.7l1,.27C382.51,164.59,376.63,164.63,376.38,164.63Z" transform="translate(-236.54 -93.72)"/><path d="M351.69,164.1c-1.22-3.15,1.43-6.19,1.54-6.3l.69.74a7.74,7.74,0,0,0-2.23,5.56Z" transform="translate(-236.54 -93.72)"/><path d="M379.1,153.16c-.75-1.42-3.43-1.62-4.41-1.58l0-1c.17,0,3.13.14,4.34,2.39Z" transform="translate(-236.54 -93.72)"/><path d="M348.51,176.7c-3.14-6.7-4.87-11.55-4.93-11.71l-1.89.66c.2.55,1.45,4,3.63,9C346.35,175.26,347.45,176,348.51,176.7Z" transform="translate(-236.54 -93.72)"/><path d="M378.9,145.58l-1.73,1c25.55,43.45,16.84,64.87,13,71h-.71c-14.11,0-25.92-14.11-34-27.71l-.16,0c-.67-.06-1.45,0-2.29,0,8.34,14.34,20.9,29.72,36.45,29.72.45,0,.9,0,1.35,0l.5,0,.28-.42C395.39,213.36,405.66,191.1,378.9,145.58Z" transform="translate(-236.54 -93.72)"/><path d="M351.4,190.4a23.64,23.64,0,0,1-2.86-.4c-1.86-.38-3.6-2-5.2-4.91-2.23-4-3.72-9.83-3-11.71a1.59,1.59,0,0,1,1.14-1c2.08-.53,6.53,2.15,7.72,5.88-2.71-2.51-6.33-4.24-7.2-4.16-.3,1.15.7,6.11,2.93,10.13,1.29,2.34,2.7,3.76,4,4,3,.6,3.92,0,5,.24A3,3,0,0,1,355.5,190,20.18,20.18,0,0,1,351.4,190.4Z" transform="translate(-236.54 -93.72)"/><polygon points="115.42 89.34 107.66 85.72 108.86 84.9 115.42 89.34"/><polygon points="111.91 91.72 112.11 87.54 113.03 88.11 111.91 91.72"/></g><g id="col"><path class="cls-1" d="M342.77,216.77s-15,31.7-16.17,47.7c0,0,12.65-10.7,18.75-10.29,0,0,6.14,1.14,15.18,7.14,4.62,39.66,25.3,76.86,37,110.17" transform="translate(-236.54 -93.72)"/><path class="cls-1" d="M367.72,217.92C377.94,234.61,388,235.28,388,235.28c-10.47,6.81-16.42,3.57-16.42,3.57l-11.09,22.47" transform="translate(-236.54 -93.72)"/><path class="cls-1" d="M369.87,209.9c.64,3.67-3.7,11.76-5.83,13.12l7.58,15.83" transform="translate(-236.54 -93.72)"/><path class="cls-1" d="M346.17,216.77s-3.26,23.29-.82,37.41" transform="translate(-236.54 -93.72)"/></g><g id="mains"><polygon class="cls-3" points="253.18 73.3 267.15 67.64 244.1 63.56 237.72 71.86 250.22 74.66 253.18 73.3"/><path class="cls-3" d="M482.6,111.83,490.34,162s13.47,3.83,27.61,0l3.56-50.17Z" transform="translate(-236.54 -93.72)"/><path class="cls-4" d="M517.24,122.17,514.34,159s-12.94,3-21.11,0l-3.4-29s20.77.94,26-8.94-7-17.78-8.93-19.4-4.32-7.77,1.55-7.94S519.5,101.83,517.24,122.17Z" transform="translate(-236.54 -93.72)"/><path class="cls-3" d="M479.85,159.66s2.76-22.46-1.58-30.63L502,121.62s8.42,7.28-12.51,12.38c0,0,8.11,17-1.72,25.66" transform="translate(-236.54 -93.72)"/><path class="cls-3" d="M525,121.62c-3.41-1.66-20.28,8.68-16.36,11.87s14.23-2.68,17.13-5.1S528.45,123.28,525,121.62Z" transform="translate(-236.54 -93.72)"/><path class="cls-3" d="M512.47,141.22s-5.56,1.23-1.36,4.81,15.35,2.36,15.35,2.36,4.39-1.13,2.56-4.4S512.47,141.22,512.47,141.22Z" transform="translate(-236.54 -93.72)"/><path class="cls-3" d="M514.87,140.64s-8.46-2.24-.94-6,14.93-5.55,17.48-2.58c1.84,2.13.26,6.77-2.17,7.4S514.87,140.64,514.87,140.64Z" transform="translate(-236.54 -93.72)"/><path class="cls-3" d="M513.27,148s-7.83-.12-.81,5.08,10.6,2.55,11.62,1.33,1.71-2.51-1.31-4.45S513.27,148,513.27,148Z" transform="translate(-236.54 -93.72)"/><path class="cls-4" d="M502.29,118.66a35.39,35.39,0,0,1-17.7-4.6s15.65,7.85,35.3.07h0C512.6,117.82,507.51,118.66,502.29,118.66Z" transform="translate(-236.54 -93.72)"/><path class="cls-5" d="M239.78,370.35s-2.19,29.16-2.21,30-.72,13,5.24,13.92" transform="translate(-236.54 -93.72)"/><path class="cls-5" d="M240.94,395.18s-.05,13.08,2.12,18.18,8.52,8.5,9.62,8.24a2.66,2.66,0,0,0,1.43-.66" transform="translate(-236.54 -93.72)"/><path class="cls-5" d="M244.19,395.5s2.23,26.29,16.66,29a10.35,10.35,0,0,0,.76-9.31s-5.87-3.2-7.78-28.86a32.94,32.94,0,0,0,8.53,10.22c5.89,4.72,9.59-2.17,9.59-2.17s-12.95-8-13.88-27.08c0,0-7.57,1.38-10.12,0" transform="translate(-236.54 -93.72)"/></g><g id="manchettes"><path class="cls-3" d="M237.57,360.29s7.73,2.43,13.89-1.66l1.69,7.66s-3.75,6.26-15.58,3.19Z" transform="translate(-236.54 -93.72)"/><path class="cls-3" d="M478.56,159c-3.79,4.61-6,7.55-6,7.55l11.87,10,10.18-10S484.55,164.21,478.56,159Z" transform="translate(-236.54 -93.72)"/></g><g id="cravate"><path d="M335.13,258.23c3.13-2.19,2.74-2,6.53-3.31,0,0-4.51,55.93,27.53,101.38,0,0-12.51,1.56-20-2.56C337.4,344.55,330.48,272.16,335.13,258.23Z" transform="translate(-236.54 -93.72)"/><path d="M371.62,238.85s-1.11,2-2.93,5.94c.5,10.91,6.32,35.11,22.33,47.42s34.47,22.22,41.11,38.3c0,0,14.55-3.57,24,8.68,0,0-10-32.68-46-50.17s-34.47-49.4-34.47-49.4Z" transform="translate(-236.54 -93.72)"/></g><g id="blush"><path class="cls-4" d="M365.38,173.2a36.84,36.84,0,0,0-3.29,7.29A36.5,36.5,0,0,0,365.38,173.2Z" transform="translate(-236.54 -93.72)"/><path class="cls-4" d="M374,169.55a31.63,31.63,0,0,0-3.29,7.29A31.87,31.87,0,0,0,374,169.55Z" transform="translate(-236.54 -93.72)"/><path class="cls-4" d="M369.47,171.54a32,32,0,0,0-3.28,7.3A32,32,0,0,0,369.47,171.54Z" transform="translate(-236.54 -93.72)"/><path class="cls-4" d="M380.69,171.2a32.91,32.91,0,0,1,2.7-5.63,32.65,32.65,0,0,1-2.55,6" transform="translate(-236.54 -93.72)"/><path class="cls-4" d="M387,164.38a37.37,37.37,0,0,1-3.29,7.3A36.42,36.42,0,0,1,387,164.38Z" transform="translate(-236.54 -93.72)"/><path class="cls-4" d="M390.46,163.91a37.14,37.14,0,0,1-3.29,7.29A36.19,36.19,0,0,1,390.46,163.91Z" transform="translate(-236.54 -93.72)"/><path class="cls-4" d="M360.84,175a31.87,31.87,0,0,1-3.29,7.29A31.63,31.63,0,0,1,360.84,175Z" transform="translate(-236.54 -93.72)"/></g></svg>