<svg xmlns="http://www.w3.org/2000/svg" viewBox="0 0 307.78 659.88"><defs><style>.cls-1,.cls-3{fill:none;}.cls-1,.cls-2,.cls-3{stroke:#000;stroke-miterlimit:10;}.cls-1,.cls-2{stroke-width:2px;}.cls-4{fill:#1d1d1b;}</style></defs><g id="Calque_11" data-name="Calque 11"><path class="cls-1" d="M337.91,611.62l-1.78,83.74s-10,22.47-16.6,38.55-6.6,29.31,15.83,19.66c7.65-3.29,7.15-7.91,13.28-35.23,3.83-9.45,4.59-6.13,5.36-12a17.26,17.26,0,0,0-1.53-10l16.59-84.76" transform="translate(-314.69 -97.96)"/><path class="cls-2" d="M452.27,704.68c3.48,2.39,4.41,2.85,5.39,24.64,0,0,0-18.51-1.5-22Z" transform="translate(-314.69 -97.96)"/><path d="M353.87,710.33l.07.22-.07.05-4,2.72-.12.27c-1.53,3.54-1.58,20.45-1.58,22.36l2,0c.93-20.71,1.27-22.13,3.73-25.45h0Z" transform="translate(-314.69 -97.96)"/><path d="M469.4,723.57c6.77,4.09,18.62,1.61,22.13-2.25.82-.88,14.51,2.63,13.24,13.48h0c-11.17,3.16-21.88,2.46-32.1-2.37C472.67,732.43,468.89,727,469.4,723.57Z" transform="translate(-314.69 -97.96)"/><path d="M448.3,691.45c0,2.26,3,7.26,12.85,17.44V710s-11.85-5.74-12.59-9.12S448.3,691.45,448.3,691.45Z" transform="translate(-314.69 -97.96)"/><path d="M317.62,741.57s4.32,12.13,24.76,0c0,0,1.15,8-7.91,12.38,0,0-12.89,5.47-17.17.63C317.3,754.58,313.91,747.32,317.62,741.57Z" transform="translate(-314.69 -97.96)"/><path d="M351.75,696.38c-.26,6,1.47,8.79-2.09,17.49,0,0,3.23-3.54,4.14-6.18C355.1,703.89,352.4,695.7,351.75,696.38Z" transform="translate(-314.69 -97.96)"/></g><g id="shoes"><path class="cls-1" d="M463.48,599.46l1.75,84.06s22.7,27.45,26.65,37.25c0,0,14.71,3.44,12.89,14,0,0-16.24,5.1-30.68-1.41-5.49-2.27-6.84-18.24-11-21.9s-12.73-6.55-14.52-10.59-.32-15.66-.32-15.66L432.62,598.4" transform="translate(-314.69 -97.96)"/></g><g id="Calque_10" data-name="Calque 10"><path class="cls-1" d="M609.43,389.74c5.82,1.89,10.69,3.15,11.79,3.66s-1.17,6.32-23.07-.16" transform="translate(-314.69 -97.96)"/><path class="cls-1" d="M573.32,393.06s14.64-8.68,17.19-8.85c.89-.06,5.13,1.27,9.66,2.67" transform="translate(-314.69 -97.96)"/><path class="cls-1" d="M611.46,396.08c-2.48,1.08-7.73,1.79-19.21-1.32" transform="translate(-314.69 -97.96)"/></g><g id="body"><path d="M470.54,185.74" transform="translate(-314.69 -97.96)"/><path class="cls-1" d="M493.15,234.77l6.13,37.1S459.45,325,455,347.11s27.92,212.42,39.15,247.15c0,0-37.28,16.85-86.3,0" transform="translate(-314.69 -97.96)"/><path class="cls-1" d="M407.87,562.6v46.46s-63.32,19.58-90.89-7.32l27.57-244.93c23.61-38,76.39-43.66,60.77-90.76" transform="translate(-314.69 -97.96)"/><path class="cls-1" d="M413.49,251s-29.11,54.92-36.26,59.89-24.76,3.94-24.76,3.94c-.48,1.73,1.35-21.15,38.55-96.51,0,0,21.45-56.6,22.47-57.45a3.57,3.57,0,0,1,4.08,0c1.37.85,3.37,9.19,3.37,9.19l-4.39-1.27-3.06,7.66,16.08,12.76,9.2,2.55v4.09s-2.81,12-4.6,13S433,198.51,433,198.51l-2.68-.64-18.13,21.45-8.93,4.34s-14,48.77-16.34,58.72" transform="translate(-314.69 -97.96)"/><path class="cls-1" d="M446.44,201.23c-.5,2.07-.9,4.2-1.26,6.43l-26.37,3.86" transform="translate(-314.69 -97.96)"/><path class="cls-1" d="M396.07,205s.26-9.19-.48-19.15c0,0,6.92-4.59,8.2-8.93,0,0,3,1.15-.37,8.93" transform="translate(-314.69 -97.96)"/><path class="cls-3" d="M494.43,201.23s-4.6,15.75-25.71,26.39c0,0-25,2-55.3-9.62" transform="translate(-314.69 -97.96)"/></g><g id="shirt"><path class="cls-1" d="M404.3,298.74s22.64,22.73,65.1,17.16" transform="translate(-314.69 -97.96)"/><polygon points="99.42 206.92 93.18 216.94 96.3 219.87 102.03 208.8 99.42 206.92"/><path d="M447,316.7a74.21,74.21,0,0,0,9.07.53h.88l-4.64,7.92a20.44,20.44,0,0,1-2.09.11,17.83,17.83,0,0,1-3.69-.38l.47-8.17m-.94-1.17-.58,10.11a18.92,18.92,0,0,0,7.44.42l5.85-10a15.79,15.79,0,0,1-2.7.13,63.09,63.09,0,0,1-10-.7Z" transform="translate(-314.69 -97.96)"/><path class="cls-3" d="M368.35,267.51s6.34,4.73,20.63,6.93" transform="translate(-314.69 -97.96)"/><path class="cls-3" d="M517.78,352.5s5.45-.71,18.67-8" transform="translate(-314.69 -97.96)"/></g><g id="poches"><path d="M454.77,347.11c1.14-5.71,4.63-13.48,9.19-21.86-43.46,4.2-63.24-15.25-66.15-19.12-13.84,16.26-39.11,27.5-53.51,50.68L316.72,601.74c27.58,26.9,90.9,7.32,90.9,7.32v-14.8l1.46.47V411.05l17.32-16.86c.47-3,3.92-24.39,6.52-33.75,2.8-10.05,15-31.37,15.5-32.3l1.28,0c-.13.23-12.95,22.7-15.71,32.63-2.47,8.83-5.57,27.83-6.27,32.18l6.34-6.18-23,25.1-2,182.91c48.29,16,84.81-.48,84.81-.48C482.68,559.53,450.34,369.23,454.77,347.11ZM394.82,351a9.63,9.63,0,0,1-1.82.16c-9.58,0-26.06-11.3-26.81-11.81l.9-.6c.05,0,1.43,1,3.58,2.31,6.64-3.89,24.41-18.59,27.75-24,1,.7,2.09,1.45,3.37,2.25-4,6.27-20.55,19.69-27.43,23.91,6.25,3.55,15.05,7.76,20.28,6.77,8-1.5,22.81-19.18,25.49-22.45l1,.31C419.32,330.13,403.57,349.32,394.82,351Z" transform="translate(-314.69 -97.96)"/></g><g id="Calque_9" data-name="Calque 9"><path class="cls-4" d="M497,160.21" transform="translate(-314.69 -97.96)"/></g><g id="head"><path class="cls-1" d="M414.64,160.21c-1.15-5-1.15-12.64.89-17.74.63-1.58,7-8.56,7-8.56l-1.61-8.29a31.18,31.18,0,0,1,3.91-6.26" transform="translate(-314.69 -97.96)"/><path d="M424.34,121.79c-6.77-5.79,4.13-20.94,22.21-19.66,30.09-16.09,74.85,17.53,52.47,48,0,0-7.4,1.78-11.74,4.47,0,0,5.36-13.66-19.54-34.94-8.72-7.46-23.05-12.89-24.89-12.43C433.15,109.66,424.34,121.79,424.34,121.79Z" transform="translate(-314.69 -97.96)"/><path d="M484.69,174.49c-2.52-.52-2.84-4.38-1.61-5.84-.21,2.25.94,4.14,2.22,4.52s3.53.08,7.82-3,7.76-10.07,7.86-15.42c0-1.09-.16-2.51-1.12-3.11-5.17-3.19-13.14,5.19-13.22,5.28.08-3.19,5.81-12.81,14.27-7a5.85,5.85,0,0,1,2.07,4.85c-.11,5.71-4.13,14-8.87,17.12C490.24,174.45,487.21,175,484.69,174.49Z" transform="translate(-314.69 -97.96)"/><path d="M496.56,158.36c-5.23.93-9.59,5.9-9.63,5.95s3.75-7.31,10-8" transform="translate(-314.69 -97.96)"/><path d="M488.9,161.38l1.3,0c-.45.84.17,3.24.72,4.59C490.92,166,487.85,163.36,488.9,161.38Z" transform="translate(-314.69 -97.96)"/><path d="M473.81,182.94l-2.43-3.32c6.65-1.6,11.89-8.52,11.89-8.52C483.11,171.48,481.45,181.1,473.81,182.94Z" transform="translate(-314.69 -97.96)"/></g><g id="face"><path class="cls-3" d="M440.52,137.6s9.11-7.1,22.13-1.4A32.66,32.66,0,0,1,440.52,137.6Z" transform="translate(-314.69 -97.96)"/><path d="M458.08,123.09c-6.39-1.3-12.21,3.52-12.27,3.57l-.64-.76c.25-.21,6.22-5.18,13.1-3.8,4.43.9,8.13,3.64,11.07,9.93C465.19,125.49,462.19,123.92,458.08,123.09Z" transform="translate(-314.69 -97.96)"/><path d="M423.88,147.5c-2.16-1.22-2.45-4.26-2.46-4.39l0-.41.4-.12a15.46,15.46,0,0,0,6.2-3.88,10.52,10.52,0,0,1-5.51,4.71A8.64,8.64,0,0,0,423.88,147.5Z" transform="translate(-314.69 -97.96)"/><path d="M434.47,162.56l.15-.75c1.64.68,5.69.05,6.95-1.1C440.22,162.48,435.76,162.84,434.47,162.56Z" transform="translate(-314.69 -97.96)"/><path class="cls-3" d="M426.94,135.56c-.26-5.71-4.17-6.43-4.17-6.43Q423.57,135.52,426.94,135.56Z" transform="translate(-314.69 -97.96)"/><path d="M428.29,123.63c-1-3.65-2.47-3.77-2.48-3.77v-1c.21,0,2.19.08,3.45,4.49Z" transform="translate(-314.69 -97.96)"/><path d="M457.29,137.78a4.36,4.36,0,0,0,.5-2,4.53,4.53,0,0,0-.12-1,23.22,23.22,0,0,0-8.48-.66,4.48,4.48,0,0,0-.32,1.64,4.42,4.42,0,0,0,1.28,3.12A34.09,34.09,0,0,0,457.29,137.78Z" transform="translate(-314.69 -97.96)"/><path d="M426.28,132.65a5,5,0,0,0-1.85-2.18,8.8,8.8,0,0,0,0,1.65,6.56,6.56,0,0,0,.52,2.27,3.4,3.4,0,0,0,.6.6h0C426,135,426.28,134,426.28,132.65Z" transform="translate(-314.69 -97.96)"/></g><g id="masque"><path d="M620.71,385.57c-4.87-.69-11.3-1.42-14.34-1-4.45.64-46.89,10.71-54,12.4l-56-197-.24-.84-29.39,4.3a50.35,50.35,0,0,1,3.22-17l-.37-.13c-.73.67-1.54,1.4-2.43,2.17a50.72,50.72,0,0,0-2.4,16.12l.05,1.11,29.87-4.38,56.28,198,.93-.23c.5-.12,50.06-11.91,54.72-12.58,2-.28,6.31,0,12.18.77l-12.14,2-.14,0c-.9.28-22.11,6.9-25.84,8.25l-3.9,1.42,17.69,2.19a.19.19,0,0,1,.17.17.2.2,0,0,1-.12.21c-5.84,2.52-22,8.18-46.6,6.49-6.68-9.53-49.4-92.31-56.89-124.56l-1.95.45c7.64,32.9,51.74,118.08,57.51,125.68l.28.36.45,0c3.41.25,6.65.36,9.74.36,19,0,31.84-4.2,38.25-7a2.19,2.19,0,0,0-.55-4.18l-9.24-1.15c7.25-2.35,20.48-6.48,21.53-6.81L620.75,389a1.74,1.74,0,0,0,1.47-1.76A1.72,1.72,0,0,0,620.71,385.57Z" transform="translate(-314.69 -97.96)"/><path class="cls-3" d="M483.27,172.06s-26.8,33.47-45.53,29.9" transform="translate(-314.69 -97.96)"/><path class="cls-3" d="M419.84,169.72c.27,4.08,47.63,6.58,67.39-14.06" transform="translate(-314.69 -97.96)"/><path d="M431.38,185.88c-5.11,0-7.6-1.12-7.81-1.21l.43-.91c3,2,17.57,1.3,32.67-4.14C445.07,184.63,436.77,185.88,431.38,185.88Z" transform="translate(-314.69 -97.96)"/><path d="M439.62,194.63v-1c4.32.62,9.53-1.93,16.64-6.34C448.12,193.57,445,194.63,439.62,194.63Z" transform="translate(-314.69 -97.96)"/><path class="cls-3" d="M470.65,166s-1.37,12.59,2.82,16.7" transform="translate(-314.69 -97.96)"/><path d="M513,158.36a17.84,17.84,0,0,0-11.14-5.85,1.5,1.5,0,0,1,0,.3c-.26,1.66-.38,20.3-17.49,20.81l-1.07-1.56-4.16,4.07-4,3.49-2.48.59,1.09,2.49s-.77.8-2.1,2.07a16.9,16.9,0,0,0,3.49,6.46c7.38,8.5,21.84,8,32.28-1S520.35,166.86,513,158.36Z" transform="translate(-314.69 -97.96)"/></g></svg>