<svg xmlns="http://www.w3.org/2000/svg" viewBox="0 0 206.19 690.41"><defs><style>.cls-1,.cls-2,.cls-3,.cls-4{fill:none;stroke-miterlimit:10;}.cls-1,.cls-2{stroke:#000;}.cls-2,.cls-4{stroke-width:2px;}.cls-3,.cls-4{stroke:#1d1d1b;}.cls-5{fill:#1d1d1b;}</style></defs><g id="Calque_7" data-name="Calque 7"><path d="M397.66,634.33V414.59L461,402l-15.47,40.23,26.06,12.41,49.32-90.26c-18.55-6.85-103.57,11.29-103.57,11.29-1.11-.51-7.4,6.66-9.19,7.05-23.88,5.27-36.8-2.27-46.47-8.08l17.16,259.69Z" transform="translate(-315.62 -60.47)"/></g><g id="body"><path d="M449,310.61,443.77,282l-2.56.31c-2.1-.86-3.86-3.22-5.25-7.22-1.14-8.34-6.17-19.22-6.17-19.22l-4.14,1.49c5.84,20.13-3.51,26.2-8.9,28l-5.08.63c-24-2.07-24.11-27-25.3-27.28s-5.35-1.57-5.35-1.57c6.09,31.29-9.06,33.82-9.06,33.82s3.21,47.58-7.63,74.72c.47.27,18.3,19.09,50.6,10.4,0,0,24.34-20,23.45-57.28Zm-55.79,12.77-2-1,19.18-5.68Z" transform="translate(-315.62 -60.47)"/><line class="cls-1" x1="129.19" y1="381.75" x2="155.18" y2="394.17"/><line class="cls-1" x1="124.98" y1="389.91" x2="150.97" y2="402.33"/><line class="cls-1" x1="62.83" y1="573.86" x2="81.52" y2="573.86"/><line class="cls-1" x1="62.83" y1="581.99" x2="81.52" y2="581.99"/><path class="cls-1" d="M397.15,727s-13.28,9.08-29.08,8.48" transform="translate(-315.62 -60.47)"/><path class="cls-1" d="M404.88,539.14a60.3,60.3,0,0,0,2.64,31.33" transform="translate(-315.62 -60.47)"/><path class="cls-2" d="M398,119V62.61a5.25,5.25,0,0,0-6.51,0l-9.82,50.54a88.55,88.55,0,0,0-12.39,166.32c10.94,52.62-8.13,94.7-8.13,94.7l23.08,349.21-34.06,26.4c23.49,1.37,47-11.91,47-11.91V414.13l63.32-12.6L407.7,538.72H397.15v50.72L520.38,363.91c-18.55-6.85-103.57,11.29-103.57,11.29s24-26.79,21.57-56.42" transform="translate(-315.62 -60.47)"/><path class="cls-2" d="M398,119.07V62.68a5.44,5.44,0,0,1,6.64,0l9.51,47.78a88.53,88.53,0,0,1,28.94,168L449,310.61l-17.87,13.78" transform="translate(-315.62 -60.47)"/><path class="cls-2" d="M397.74,73.4s-2.83-1.7-4.1-.34S392.38,86.51,390,94.17" transform="translate(-315.62 -60.47)"/><path class="cls-2" d="M398,73.4s2.84-1.7,4.1-.34,1.26,13.45,3.64,21.11" transform="translate(-315.62 -60.47)"/></g><g id="shirt"><path class="cls-1" d="M386.37,258.69c5.74,37.05,50,36.23,39.72-.6" transform="translate(-315.62 -60.47)"/><path class="cls-3" d="M381,257.12c4,16,0,32.45-9.06,33.82" transform="translate(-315.62 -60.47)"/><path class="cls-1" d="M429.79,255.84s3.1,5.79,5.49,16.7,8.49,9.43,8.49,9.43" transform="translate(-315.62 -60.47)"/><path class="cls-1" d="M364.33,365.66c7.63,8,28,17.34,51.54,10.13a45.31,45.31,0,0,1-7.74,6.93c-16.73,5.37-39.9-1.32-47.53-9.32" transform="translate(-315.62 -60.47)"/></g><g id="hears"><path class="cls-2" d="M439.88,192.14c5.52,1.8,8.61,14.73-2.54,19.24" transform="translate(-315.62 -60.47)"/><path class="cls-2" d="M359.8,197.82c-.55.78-2.76,12.2,4.53,13.71" transform="translate(-315.62 -60.47)"/></g><g id="head"><path class="cls-2" d="M413.23,237.57s3.83,11.49,0,22.6a71,71,0,1,0-16.62.29c5.09-11.07,1.77-19.82,1.77-19.82" transform="translate(-315.62 -60.47)"/><path d="M437.36,199.39a35.09,35.09,0,0,1,.19,3.72,36.53,36.53,0,1,1-72.73-4.85l-2-.15a39.24,39.24,0,0,0-.33,5,38.53,38.53,0,0,0,77.06,0c0-1-.05-2-.12-2.9C439,200,438.26,199.77,437.36,199.39Z" transform="translate(-315.62 -60.47)"/><path d="M417,168.06l-.31-.15c-.25.63-.51,1.24-.77,1.85l.77.35C416.75,169.44,416.86,168.75,417,168.06Z" transform="translate(-315.62 -60.47)"/><path d="M441,201.76l-1.23-.39c-.27-.08-24.32-8-24.24-28.35-10.13,20.35-29.1,29-56.51,25.72l-.84-.1,0-.85a37.86,37.86,0,0,1,10-27.86c8.05-8.8,20.33-14.39,32.86-14.93-15.75,2.74-39.75,13.55-40.91,41.85,36.23,1,50.19-13.91,57.48-31.32-3.21,18.51,9,28.58,21.55,33.5,1.24-30.7-18.69-39.93-22.71-42,16.86,5.68,25.85,21.5,24.65,43.4Z" transform="translate(-315.62 -60.47)"/><path class="cls-4" d="M458.17,182.94" transform="translate(-315.62 -60.47)"/><path class="cls-5" d="M395.93,155.78c-.89-1.65-3.51-7.28-1.61-13.37,1.52-4.87,5.57-8.78,12-11.61l.4.91c-6.18,2.71-10,6.41-11.48,11-2.07,6.66,1.74,13,1.78,13" transform="translate(-315.62 -60.47)"/><path d="M359.16,197.82l-.1-1c34.75-3.5,43.93-29.49,43.93-29.49C402.91,167.61,394.57,194.26,359.16,197.82Z" transform="translate(-315.62 -60.47)"/><path d="M422.23,160c4.73-3,7.55-6.75,8.37-11.07a20.43,20.43,0,0,0-1.35-12.49h0c.71-.18,8.84,6.63,8,15.59-.43,4.75-3.65,8.87-9.64,12.25l-.49-.89c5.69-3.2,8.76-7,9.13-11.44.47-5.59-3.19-11.24-5.9-14.13,1.93,4.12,1.62,8.44,1.2,11.3-.66,4.5-3.67,8.31-8.37,11.45" transform="translate(-315.62 -60.47)"/><path d="M435.74,138.78c-5.45-4.32-13-7.24-21.28-8.22s-16.31.1-22.61,3c-6.47,3-10.38,7.6-11,12.95-.52,4.39,1.22,8.79,4.94,12.68.69-.26,1.38-.51,2.08-.75-3.73-3.6-5.51-7.69-5-11.69.55-4.64,4.06-8.68,9.87-11.38a37.88,37.88,0,0,1,15.83-3.19,48,48,0,0,1,5.7.34c7.92.93,15.12,3.71,20.28,7.8s7.48,8.73,6.93,13.37-4.05,8.67-9.86,11.37c-.76.35-1.55.68-2.36,1,.51.51,1,1,1.48,1.58.58-.23,1.16-.47,1.72-.73,6.47-3,10.38-7.61,11-13S441.33,143.21,435.74,138.78Z" transform="translate(-315.62 -60.47)"/></g><g id="face"><path d="M416.06,210c-4.78,0-9.14-2-10.92-4,1.79,1.46,11.09,4.9,19,.47l.59.81A14.62,14.62,0,0,1,416.06,210Z" transform="translate(-315.62 -60.47)"/><path d="M383.94,210.47c-3.29,0-6.27-1-7.95-2.61l.7-.71c3,2.8,10.31,2.8,16.13.78A16.55,16.55,0,0,1,383.94,210.47Z" transform="translate(-315.62 -60.47)"/><ellipse cx="394.45" cy="219.62" rx="0.73" ry="1.03" transform="translate(-370.02 110.56) rotate(-22.93)"/><ellipse cx="399.6" cy="219.62" rx="0.73" ry="1.03" transform="translate(-369.61 112.57) rotate(-22.93)"/><path d="M411.89,228.57a13.37,13.37,0,0,0,5.73-5l.34,1C416.49,226.66,414.38,227.74,411.89,228.57Z" transform="translate(-315.62 -60.47)"/></g></svg>